<svg xmlns="http://www.w3.org/2000/svg" xmlns:xlink="http://www.w3.org/1999/xlink" width="40" zoomAndPan="magnify" viewBox="0 0 30 30.000001" height="40" preserveAspectRatio="xMidYMid meet" version="1.0"><defs><clipPath id="c8621bead5"><path d="M 0.773438 0.289062 L 29.515625 0.289062 L 29.515625 29.03125 L 0.773438 29.03125 Z M 0.773438 0.289062 " clip-rule="nonzero"/></clipPath><clipPath id="bed54985c8"><path d="M 4 17 L 27 17 L 27 29.03125 L 4 29.03125 Z M 4 17 " clip-rule="nonzero"/></clipPath></defs><g clip-path="url(#c8621bead5)"><path fill="#b3b3b3" d="M 29.808594 14.808594 C 29.808594 18.519531 28.414062 21.90625 26.121094 24.476562 C 23.460938 27.449219 19.59375 29.324219 15.292969 29.324219 C 10.988281 29.324219 7.121094 27.449219 4.464844 24.476562 C 2.167969 21.90625 0.773438 18.519531 0.773438 14.808594 C 0.773438 6.789062 7.273438 0.289062 15.292969 0.289062 C 23.308594 0.289062 29.808594 6.789062 29.808594 14.808594 " fill-opacity="1" fill-rule="nonzero"/></g><path fill="#f2f2f2" d="M 15.292969 17.480469 C 17.921875 17.480469 20.320312 14.503906 20.320312 11.234375 C 20.320312 8.148438 19.722656 5.09375 15.292969 5.09375 C 10.859375 5.09375 10.261719 8.148438 10.261719 11.234375 C 10.261719 14.503906 12.660156 17.480469 15.292969 17.480469 " fill-opacity="1" fill-rule="nonzero"/><g clip-path="url(#bed54985c8)"><path fill="#f2f2f2" d="M 26.121094 24.476562 C 23.460938 27.449219 19.59375 29.324219 15.292969 29.324219 C 10.988281 29.324219 7.121094 27.449219 4.464844 24.476562 C 4.417969 22.683594 5.609375 18.527344 11.699219 17.25 C 12.742188 18.3125 14.023438 18.914062 15.292969 18.914062 C 16.558594 18.914062 17.839844 18.3125 18.878906 17.25 C 24.972656 18.527344 26.164062 22.683594 26.121094 24.476562 " fill-opacity="1" fill-rule="nonzero"/></g></svg>